<svg xmlns="http://www.w3.org/2000/svg" xmlns:xlink="http://www.w3.org/1999/xlink" width="134pt" height="310pt" viewBox="0.00 0.00 134.00 310.00">
<g id="graph0" class="graph" transform="scale(1 1) rotate(0) translate(4 306.4)">
<title>Small</title>
<polygon fill="white" stroke="none" points="-4,4 -4,-306.4 130,-306.4 130,4 -4,4"/>
<!-- A -->
<g id="node1" class="node">
<title>A</title>
<ellipse fill="none" stroke="black" cx="83" cy="-284.4" rx="27" ry="18"/>
<text xml:space="preserve" text-anchor="middle" x="83" y="-280.2" font-family="Times,serif" font-size="14.00">A</text>
</g>
<!-- B -->
<g id="node2" class="node">
<title>B</title>
<ellipse fill="none" stroke="black" cx="36" cy="-195.6" rx="27" ry="18"/>
<text xml:space="preserve" text-anchor="middle" x="36" y="-191.4" font-family="Times,serif" font-size="14.00">B</text>
</g>
<!-- A&#45;&#45;B -->
<g id="edge1" class="edge">
<title>A--B</title>
<path fill="none" stroke="black" d="M74.16,-267.07C65.76,-251.56 53.19,-228.35 44.8,-212.85"/>
<text xml:space="preserve" text-anchor="middle" x="67.21" y="-235.8" font-family="Times,serif" font-size="14.00">2</text>
</g>
<!-- C -->
<g id="node3" class="node">
<title>C</title>
<ellipse fill="none" stroke="black" cx="99" cy="-106.8" rx="27" ry="18"/>
<text xml:space="preserve" text-anchor="middle" x="99" y="-102.6" font-family="Times,serif" font-size="14.00">C</text>
</g>
<!-- A&#45;&#45;C -->
<g id="edge2" class="edge">
<title>A--C</title>
<path fill="none" stroke="black" d="M84.56,-266.24C87.62,-232.67 94.37,-158.65 97.43,-125.03"/>
<text xml:space="preserve" text-anchor="middle" x="96.09" y="-191.4" font-family="Times,serif" font-size="14.00">4</text>
</g>
<!-- B&#45;&#45;C -->
<g id="edge3" class="edge">
<title>B--C</title>
<path fill="none" stroke="black" d="M47.26,-179.08C58.66,-163.38 76.18,-139.23 87.62,-123.48"/>
<text xml:space="preserve" text-anchor="middle" x="76.64" y="-147" font-family="Times,serif" font-size="14.00">1</text>
</g>
<!-- D -->
<g id="node4" class="node">
<title>D</title>
<ellipse fill="none" stroke="black" cx="27" cy="-106.8" rx="27" ry="18"/>
<text xml:space="preserve" text-anchor="middle" x="27" y="-102.6" font-family="Times,serif" font-size="14.00">D</text>
</g>
<!-- B&#45;&#45;D -->
<g id="edge4" class="edge">
<title>B--D</title>
<path fill="none" stroke="black" d="M34.22,-177.45C32.65,-162.33 30.38,-140.41 28.81,-125.21"/>
<text xml:space="preserve" text-anchor="middle" x="35.81" y="-147" font-family="Times,serif" font-size="14.00">8</text>
</g>
<!-- E -->
<g id="node5" class="node">
<title>E</title>
<ellipse fill="none" stroke="black" cx="63" cy="-18" rx="27" ry="18"/>
<text xml:space="preserve" text-anchor="middle" x="63" y="-13.8" font-family="Times,serif" font-size="14.00">E</text>
</g>
<!-- C&#45;&#45;E -->
<g id="edge5" class="edge">
<title>C--E</title>
<path fill="none" stroke="black" d="M92.06,-89.06C85.68,-73.69 76.29,-51.04 69.92,-35.68"/>
<text xml:space="preserve" text-anchor="middle" x="87.72" y="-58.2" font-family="Times,serif" font-size="14.00">3</text>
</g>
<!-- D&#45;&#45;E -->
<g id="edge6" class="edge">
<title>D--E</title>
<path fill="none" stroke="black" d="M33.94,-89.06C40.32,-73.69 49.71,-51.04 56.08,-35.68"/>
<text xml:space="preserve" text-anchor="middle" x="51.72" y="-58.2" font-family="Times,serif" font-size="14.00">2</text>
</g>
</g>
</svg>