<svg xmlns="http://www.w3.org/2000/svg" xmlns:xlink="http://www.w3.org/1999/xlink" width="134pt" height="596pt" viewBox="0.00 0.00 134.00 596.00">
<g id="graph0" class="graph" transform="scale(1 1) rotate(0) translate(4 592)">
<title>Medium</title>
<polygon fill="white" stroke="none" points="-4,4 -4,-592 130,-592 130,4 -4,4"/>
<!-- A -->
<g id="node1" class="node">
<title>A</title>
<ellipse fill="none" stroke="black" cx="71" cy="-570" rx="27" ry="18"/>
<text xml:space="preserve" text-anchor="middle" x="71" y="-565.8" font-family="Times,serif" font-size="14.00">A</text>
</g>
<!-- B -->
<g id="node2" class="node">
<title>B</title>
<ellipse fill="none" stroke="black" cx="42" cy="-481.2" rx="27" ry="18"/>
<text xml:space="preserve" text-anchor="middle" x="42" y="-477" font-family="Times,serif" font-size="14.00">B</text>
</g>
<!-- A&#45;&#45;B -->
<g id="edge1" class="edge">
<title>A--B</title>
<path fill="none" stroke="black" d="M65.41,-552.26C60.31,-536.99 52.8,-514.53 47.67,-499.18"/>
<text xml:space="preserve" text-anchor="middle" x="62.6" y="-521.4" font-family="Times,serif" font-size="14.00">3</text>
</g>
<!-- C -->
<g id="node3" class="node">
<title>C</title>
<ellipse fill="none" stroke="black" cx="98" cy="-427.2" rx="27" ry="18"/>
<text xml:space="preserve" text-anchor="middle" x="98" y="-423" font-family="Times,serif" font-size="14.00">C</text>
</g>
<!-- A&#45;&#45;C -->
<g id="edge2" class="edge">
<title>A--C</title>
<path fill="none" stroke="black" d="M74.31,-551.74C79.52,-524.56 89.57,-472.15 94.75,-445.17"/>
<text xml:space="preserve" text-anchor="middle" x="84" y="-521.4" font-family="Times,serif" font-size="14.00">5</text>
</g>
<!-- D -->
<g id="node4" class="node">
<title>D</title>
<ellipse fill="none" stroke="black" cx="36" cy="-373.2" rx="27" ry="18"/>
<text xml:space="preserve" text-anchor="middle" x="36" y="-369" font-family="Times,serif" font-size="14.00">D</text>
</g>
<!-- B&#45;&#45;D -->
<g id="edge3" class="edge">
<title>B--D</title>
<path fill="none" stroke="black" d="M41.04,-463.17C39.92,-443.51 38.1,-411.33 36.98,-391.54"/>
<text xml:space="preserve" text-anchor="middle" x="43.39" y="-423" font-family="Times,serif" font-size="14.00">2</text>
</g>
<!-- E -->
<g id="node5" class="node">
<title>E</title>
<ellipse fill="none" stroke="black" cx="99" cy="-284.4" rx="27" ry="18"/>
<text xml:space="preserve" text-anchor="middle" x="99" y="-280.2" font-family="Times,serif" font-size="14.00">E</text>
</g>
<!-- C&#45;&#45;E -->
<g id="edge4" class="edge">
<title>C--E</title>
<path fill="none" stroke="black" d="M98.12,-408.94C98.31,-381.91 98.68,-329.92 98.88,-302.81"/>
<text xml:space="preserve" text-anchor="middle" x="102" y="-369" font-family="Times,serif" font-size="14.00">7</text>
</g>
<!-- D&#45;&#45;E -->
<g id="edge5" class="edge">
<title>D--E</title>
<path fill="none" stroke="black" d="M47.26,-356.68C58.66,-340.98 76.18,-316.83 87.62,-301.08"/>
<text xml:space="preserve" text-anchor="middle" x="76.64" y="-324.6" font-family="Times,serif" font-size="14.00">4</text>
</g>
<!-- F -->
<g id="node6" class="node">
<title>F</title>
<ellipse fill="none" stroke="black" cx="27" cy="-284.4" rx="27" ry="18"/>
<text xml:space="preserve" text-anchor="middle" x="27" y="-280.2" font-family="Times,serif" font-size="14.00">F</text>
</g>
<!-- D&#45;&#45;F -->
<g id="edge6" class="edge">
<title>D--F</title>
<path fill="none" stroke="black" d="M34.22,-355.05C32.65,-339.93 30.38,-318.01 28.81,-302.81"/>
<text xml:space="preserve" text-anchor="middle" x="35.81" y="-324.6" font-family="Times,serif" font-size="14.00">6</text>
</g>
<!-- G -->
<g id="node7" class="node">
<title>G</title>
<ellipse fill="none" stroke="black" cx="99" cy="-195.6" rx="27" ry="18"/>
<text xml:space="preserve" text-anchor="middle" x="99" y="-191.4" font-family="Times,serif" font-size="14.00">G</text>
</g>
<!-- E&#45;&#45;G -->
<g id="edge7" class="edge">
<title>E--G</title>
<path fill="none" stroke="black" d="M99,-266.25C99,-251.13 99,-229.21 99,-214.01"/>
<text xml:space="preserve" text-anchor="middle" x="102.5" y="-235.8" font-family="Times,serif" font-size="14.00">5</text>
</g>
<!-- H -->
<g id="node8" class="node">
<title>H</title>
<ellipse fill="none" stroke="black" cx="27" cy="-195.6" rx="27" ry="18"/>
<text xml:space="preserve" text-anchor="middle" x="27" y="-191.4" font-family="Times,serif" font-size="14.00">H</text>
</g>
<!-- F&#45;&#45;H -->
<g id="edge8" class="edge">
<title>F--H</title>
<path fill="none" stroke="black" d="M27,-266.25C27,-251.13 27,-229.21 27,-214.01"/>
<text xml:space="preserve" text-anchor="middle" x="30.5" y="-235.8" font-family="Times,serif" font-size="14.00">2</text>
</g>
<!-- I -->
<g id="node9" class="node">
<title>I</title>
<ellipse fill="none" stroke="black" cx="99" cy="-106.8" rx="27" ry="18"/>
<text xml:space="preserve" text-anchor="middle" x="99" y="-102.6" font-family="Times,serif" font-size="14.00">I</text>
</g>
<!-- G&#45;&#45;I -->
<g id="edge9" class="edge">
<title>G--I</title>
<path fill="none" stroke="black" d="M99,-177.45C99,-162.33 99,-140.41 99,-125.21"/>
<text xml:space="preserve" text-anchor="middle" x="102.5" y="-147" font-family="Times,serif" font-size="14.00">3</text>
</g>
<!-- J -->
<g id="node10" class="node">
<title>J</title>
<ellipse fill="none" stroke="black" cx="27" cy="-106.8" rx="27" ry="18"/>
<text xml:space="preserve" text-anchor="middle" x="27" y="-102.6" font-family="Times,serif" font-size="14.00">J</text>
</g>
<!-- H&#45;&#45;J -->
<g id="edge10" class="edge">
<title>H--J</title>
<path fill="none" stroke="black" d="M27,-177.45C27,-162.33 27,-140.41 27,-125.21"/>
<text xml:space="preserve" text-anchor="middle" x="30.5" y="-147" font-family="Times,serif" font-size="14.00">8</text>
</g>
<!-- K -->
<g id="node11" class="node">
<title>K</title>
<ellipse fill="none" stroke="black" cx="99" cy="-18" rx="27" ry="18"/>
<text xml:space="preserve" text-anchor="middle" x="99" y="-13.8" font-family="Times,serif" font-size="14.00">K</text>
</g>
<!-- I&#45;&#45;K -->
<g id="edge11" class="edge">
<title>I--K</title>
<path fill="none" stroke="black" d="M99,-88.65C99,-73.53 99,-51.61 99,-36.41"/>
<text xml:space="preserve" text-anchor="middle" x="102.5" y="-58.2" font-family="Times,serif" font-size="14.00">4</text>
</g>
<!-- L -->
<g id="node12" class="node">
<title>L</title>
<ellipse fill="none" stroke="black" cx="27" cy="-18" rx="27" ry="18"/>
<text xml:space="preserve" text-anchor="middle" x="27" y="-13.8" font-family="Times,serif" font-size="14.00">L</text>
</g>
<!-- J&#45;&#45;L -->
<g id="edge12" class="edge">
<title>J--L</title>
<path fill="none" stroke="black" d="M27,-88.65C27,-73.53 27,-51.61 27,-36.41"/>
<text xml:space="preserve" text-anchor="middle" x="30.5" y="-58.2" font-family="Times,serif" font-size="14.00">6</text>
</g>
</g>
</svg>